<svg width="389" height="389" viewBox="0 0 389 389" fill="none" xmlns="http://www.w3.org/2000/svg">
<rect width="389" height="389" fill="white"/>
<path d="M100.552 88.5626V104.944V121.325H143.081H185.61V139.111V156.898H149.772H113.936V173.187V189.477H149.772H185.61V244.957V300.437L214.711 300.376C216.52 300.372 217.292 300.367 218.894 300.364V270.132V237.63V205.127V174.892V146.865V118.838V88.6765C208.171 88.6501 193.433 88.6378 171.301 88.6199L100.552 88.5626ZM235.183 88.7555V118.94L238.705 118.962L240.443 119.435C246.789 121.158 250.015 125.316 251.404 133.564C251.649 135.019 251.713 137.008 251.777 145.005C251.858 155.163 251.768 157.223 251.102 160.508C249.887 166.505 247.112 170.504 242.579 172.79C241.447 173.361 239.15 174.084 237.324 174.443C236.848 174.537 236.213 174.604 235.183 174.655V205.259C238.827 205.312 239.633 205.396 240.73 205.633C247.901 207.185 251.66 210.651 253.671 217.565C255.027 222.231 255.215 225.314 255.122 241.339C255.05 253.784 255.03 254.461 254.666 256.385C254.169 259.012 253.702 260.566 252.891 262.295C250.867 266.61 247.454 268.997 242.061 269.872V269.873C241.111 270.027 239.486 270.094 235.183 270.119V300.307C245.737 300.232 246.825 300.055 250.503 299.444C274.008 295.538 286.624 280.777 288.272 255.254C288.507 251.62 288.507 231.298 288.272 227.515C287.53 215.556 284.781 206.664 279.697 199.779C278.195 197.745 274.521 194.091 272.625 192.745C270.399 191.165 267.705 189.614 265.554 188.673C264.137 188.054 263.624 187.747 263.624 187.517C263.624 187.298 264.143 186.936 265.34 186.32C268.77 184.556 271.455 182.532 274.278 179.585C280.186 173.417 283.344 165.571 284.705 153.683C284.96 151.451 285.013 149.365 285.016 141.312C285.02 130.048 284.83 127.33 283.61 121.234C281.609 111.244 276.861 102.96 270.227 97.8803C264.639 93.6018 257.168 90.6992 248.566 89.465C245.68 89.0508 244.895 88.8558 235.183 88.7555Z" fill="#2855C9"/>
</svg>
